<svg xmlns="http://www.w3.org/2000/svg" viewBox="0 0 130 137"><g data-name="Layer 2"><g data-name="Layer 1"><path fill="#f93052" d="M117.44 68.6a53.52 53.52 0 1 1-2.81-17.21 53.76 53.76 0 0 1 2.81 17.21z"/><path fill="#f15a24" d="M114.62 51.38l-68.16 68.17a53.43 53.43 0 01-17.32-9.76c.22-.27.44-.52.69-.77l73.32-73.32a9.82 9.82 0 011.85-1.45 53.82 53.82 0 019.62 17.13zM93.28 23.71c-.18.21-.36.41-.57.61L19.4 97.64c-.2.2-.4.38-.61.57A53.34 53.34 0 0110.91 79L74 15.84a53.34 53.34 0 0119.28 7.87z"/><path fill="#ed1c24" d="M129.31 62.5a65 65 0 0 1-128.62 0A66.08 66.08 0 0 0 0 72a65 65 0 0 0 130 0 66.08 66.08 0 0 0-.69-9.5z"/><path fill="#f7931e" d="M65 20a45 45 0 1 1-45 45 45.05 45.05 0 0 1 45-45m0-20a65 65 0 1 0 65 65A65 65 0 0 0 65 0z"/><path fill="#f15a24" d="M65.5 111c-25.27 0-47.76-9.89-62.11-25.26A65 65 0 0 0 126 87.37C111.64 101.81 89.86 111 65.5 111z"/><rect width="12.32" height="12.32" x="38.24" y="46.54" fill="#c1272d" rx="6.16" ry="6.16"/><rect width="9.77" height="37.53" x="70.36" y="34.54" fill="#c1272d" rx="4.89" ry="4.89" transform="rotate(91.6 75.244 53.306)"/><rect width="12.32" height="12.32" x="36.97" y="45.14" fill="#fff" rx="6.16" ry="6.16"/><rect width="12.32" height="12.32" x="38.24" y="63.54" fill="#c1272d" rx="6.16" ry="6.16"/><rect width="12.32" height="12.32" x="36.97" y="62.14" fill="#fff" rx="6.16" ry="6.16"/><rect width="12.32" height="12.32" x="38.24" y="80.54" fill="#c1272d" rx="6.16" ry="6.16"/><rect width="12.32" height="12.32" x="36.97" y="79.14" fill="#fff" rx="6.16" ry="6.16"/><rect width="9.77" height="38.6" x="68.74" y="32.01" fill="#fff" rx="4.89" ry="4.89" transform="rotate(91.6 73.633 51.311)"/><rect width="9.77" height="37.56" x="70.37" y="51.52" fill="#c1272d" rx="4.89" ry="4.89" transform="rotate(91.6 75.26 70.307)"/><rect width="9.77" height="38.6" x="68.74" y="49.01" fill="#fff" rx="4.89" ry="4.89" transform="rotate(91.6 73.628 68.312)"/><rect width="9.77" height="37.56" x="70.37" y="68.52" fill="#c1272d" rx="4.89" ry="4.89" transform="rotate(91.6 75.255 87.308)"/><rect width="9.77" height="38.6" x="68.74" y="66.01" fill="#fff" rx="4.89" ry="4.89" transform="rotate(91.6 73.629 85.308)"/></g></g></svg>